<?xml version="1.0" encoding="UTF-8"?>
<svg xmlns="http://www.w3.org/2000/svg" version="1.1" viewBox="0 0 1080 1080">
  <defs>
    <style>
      .cls-1, .cls-2 {
        fill: #fff;
      }

      .cls-2 {
        fill-rule: evenodd;
      }

      .cls-3 {
        fill: #031926;
      }
    </style>
  </defs>
  <!-- Generator: Adobe Illustrator 28.6.0, SVG Export Plug-In . SVG Version: 1.2.0 Build 709)  -->
  <g>
    <g id="Layer_1">
      <g>
        <g>
          <path class="cls-3" d="M540,99.25c-243.03,0-440.75,197.72-440.75,440.75s197.72,440.75,440.75,440.75,440.75-197.72,440.75-440.75S783.03,99.25,540,99.25ZM673.44,734.86l-28.48-40.67c1.35-.92,2.69-1.87,4.02-2.83l28.48,40.67c-1.33.96-2.68,1.89-4.03,2.82ZM655.97,745.78l-24.84-43.02c1.43-.8,2.85-1.62,4.26-2.46l24.83,43.01c-1.41.84-2.83,1.66-4.25,2.47ZM637.61,755.14l-21-45.03c1.5-.67,2.98-1.37,4.45-2.08l21,45.03c-1.48.71-2.96,1.4-4.45,2.08ZM618.49,762.84l-17-46.71c1.55-.54,3.09-1.1,4.62-1.68l17,46.71c-1.53.58-3.07,1.14-4.62,1.68ZM598.78,768.86l-12.87-48.04c1.59-.4,3.18-.82,4.75-1.27l12.87,48.03c-1.58.44-3.16.87-4.75,1.28ZM578.6,773.09l-8.64-48.98c1.62-.26,3.24-.55,4.84-.85l8.64,48.98c-1.61.3-3.22.58-4.84.85ZM558.14,775.57l-4.34-49.56c1.64-.12,3.27-.26,4.9-.42l4.34,49.55c-1.63.16-3.26.31-4.9.44ZM406.56,345.14l28.48,40.67c-1.35.92-2.69,1.87-4.02,2.83l-28.48-40.67c1.33-.96,2.67-1.89,4.03-2.82ZM424.03,334.22l24.84,43.02c-1.43.8-2.85,1.62-4.26,2.46l-24.83-43.01c1.41-.84,2.83-1.66,4.25-2.47ZM442.39,324.86l21,45.03c-1.5.67-2.98,1.37-4.45,2.08l-21-45.03c1.48-.71,2.96-1.4,4.45-2.08ZM461.51,317.16l17,46.71c-1.55.54-3.09,1.1-4.62,1.68l-17-46.71c1.53-.58,3.07-1.14,4.62-1.69ZM481.22,311.14l12.87,48.04c-1.59.4-3.18.82-4.75,1.27l-12.87-48.03c1.58-.44,3.16-.87,4.75-1.28ZM501.4,306.91l8.64,48.98c-1.62.26-3.24.55-4.84.85l-8.64-48.98c1.61-.3,3.22-.58,4.84-.85ZM521.86,304.43l4.34,49.57c-1.64.12-3.27.26-4.9.42l-4.34-49.55c1.63-.16,3.26-.31,4.9-.44ZM681.29,418.24l38.02-31.9c1.07,1.24,2.13,2.49,3.17,3.76l-38.03,31.91c-1.04-1.27-2.09-2.53-3.16-3.77ZM708.7,374.77l-35.1,35.1c-1.14-1.17-2.3-2.33-3.48-3.48l35.1-35.1c1.17,1.15,2.33,2.31,3.48,3.48ZM693.67,360.69l-31.91,38.02c-1.24-1.07-2.5-2.12-3.77-3.16l31.91-38.03c1.27,1.04,2.52,2.1,3.76,3.17ZM677.47,347.96l-28.48,40.67c-1.33-.96-2.67-1.9-4.02-2.83l28.48-40.67c1.35.93,2.7,1.87,4.03,2.82ZM660.22,336.69l-24.83,43.01c-1.41-.84-2.83-1.66-4.26-2.46l24.84-43.02c1.43.81,2.84,1.63,4.25,2.47ZM642.06,326.94l-21,45.03c-1.47-.71-2.96-1.41-4.45-2.08l21-45.03c1.49.68,2.98,1.37,4.45,2.08ZM623.11,318.84l-17,46.71c-1.53-.58-3.07-1.14-4.62-1.68l17-46.71c1.55.55,3.09,1.11,4.62,1.69ZM603.52,312.42l-12.87,48.03c-1.57-.44-3.16-.86-4.75-1.27l12.87-48.04c1.59.41,3.17.84,4.75,1.28ZM583.45,307.76l-8.64,48.98c-1.61-.3-3.22-.59-4.84-.85l8.64-48.98c1.62.27,3.23.55,4.84.85ZM563.04,304.86l-4.34,49.55c-1.63-.16-3.26-.3-4.9-.42l4.34-49.57c1.64.12,3.27.28,4.9.44ZM542.46,353.51c-.82-.01-1.64-.03-2.46-.03s-1.64.02-2.46.03v-49.75c.82,0,1.64-.03,2.46-.03s1.64.02,2.46.03v49.75ZM422,395.55c-1.27,1.04-2.53,2.09-3.77,3.16l-31.91-38.02c1.24-1.07,2.49-2.13,3.76-3.17l31.91,38.03ZM409.87,406.4c-1.17,1.14-2.33,2.3-3.48,3.48l-35.1-35.1c1.15-1.17,2.31-2.33,3.48-3.48l35.1,35.1ZM398.71,418.24c-1.07,1.24-2.12,2.5-3.16,3.77l-38.03-31.91c1.04-1.27,2.1-2.52,3.17-3.76l38.02,31.9ZM388.64,431.01c-.96,1.33-1.9,2.67-2.83,4.02l-40.67-28.48c.93-1.35,1.87-2.7,2.82-4.03l40.67,28.48ZM379.7,444.61c-.84,1.41-1.66,2.83-2.46,4.26l-43.02-24.84c.81-1.43,1.63-2.84,2.47-4.25l43.01,24.83ZM371.98,458.94c-.71,1.47-1.41,2.96-2.08,4.45l-45.03-21c.68-1.49,1.37-2.98,2.08-4.45l45.03,21ZM365.55,473.89c-.58,1.53-1.14,3.07-1.68,4.62l-46.71-17c.55-1.55,1.11-3.09,1.69-4.62l46.71,17ZM360.45,489.34c-.44,1.57-.86,3.16-1.27,4.75l-48.04-12.87c.41-1.59.84-3.17,1.28-4.75l48.03,12.87ZM356.74,505.19c-.3,1.61-.59,3.22-.85,4.84l-48.98-8.64c.27-1.62.55-3.23.85-4.84l48.98,8.64ZM354.41,521.3c-.16,1.63-.3,3.26-.42,4.9l-49.57-4.34c.12-1.64.28-3.27.44-4.9l49.55,4.34ZM303.74,540c0-.82.02-1.64.03-2.46h49.75c-.01.82-.03,1.64-.03,2.46s.02,1.64.03,2.46h-49.75c0-.82-.03-1.64-.03-2.46ZM304.43,558.14l49.57-4.34c.12,1.64.26,3.27.42,4.9l-49.55,4.34c-.16-1.63-.31-3.26-.44-4.9ZM306.91,578.6l48.98-8.64c.26,1.62.55,3.24.85,4.84l-48.98,8.64c-.3-1.61-.58-3.22-.85-4.84ZM311.14,598.78l48.04-12.87c.4,1.59.82,3.18,1.27,4.75l-48.03,12.87c-.44-1.58-.87-3.16-1.28-4.75ZM317.16,618.49l46.71-17c.54,1.55,1.1,3.09,1.68,4.62l-46.71,17c-.58-1.53-1.14-3.07-1.69-4.62ZM324.86,637.61l45.03-21c.67,1.5,1.37,2.98,2.08,4.45l-45.03,21c-.71-1.48-1.4-2.96-2.08-4.45ZM334.22,655.97l43.02-24.84c.8,1.43,1.62,2.85,2.46,4.26l-43.01,24.83c-.84-1.41-1.66-2.83-2.47-4.25ZM345.14,673.44l40.67-28.48c.92,1.35,1.87,2.7,2.83,4.02l-40.67,28.48c-.96-1.33-1.89-2.68-2.82-4.03ZM395.55,658c1.04,1.27,2.09,2.53,3.16,3.77l-38.02,31.9c-1.07-1.24-2.13-2.49-3.17-3.76l38.03-31.91ZM371.3,705.23l35.1-35.1c1.14,1.17,2.3,2.33,3.48,3.48l-35.1,35.1c-1.17-1.15-2.33-2.31-3.48-3.48ZM386.33,719.31l31.9-38.02c1.24,1.07,2.5,2.12,3.77,3.16l-31.91,38.03c-1.27-1.04-2.52-2.1-3.76-3.17ZM402.53,732.04l28.48-40.67c1.33.96,2.67,1.9,4.02,2.83l-28.48,40.67c-1.35-.93-2.7-1.87-4.03-2.82ZM419.78,743.31l24.83-43.01c1.41.84,2.83,1.66,4.26,2.46l-24.84,43.02c-1.43-.81-2.84-1.63-4.25-2.47ZM437.94,753.06l21-45.03c1.47.71,2.96,1.41,4.45,2.08l-21,45.03c-1.49-.68-2.98-1.37-4.45-2.08ZM456.89,761.16l17-46.71c1.53.58,3.07,1.14,4.62,1.68l-17,46.71c-1.55-.55-3.09-1.11-4.62-1.68ZM476.48,767.58l12.87-48.03c1.57.44,3.16.86,4.75,1.27l-12.87,48.04c-1.59-.41-3.17-.84-4.75-1.28ZM496.55,772.24l8.64-48.98c1.61.3,3.22.59,4.84.85l-8.64,48.98c-1.62-.27-3.23-.55-4.84-.85ZM516.96,775.14l4.34-49.55c1.63.16,3.26.3,4.9.42l-4.34,49.56c-1.64-.12-3.27-.28-4.9-.44ZM537.54,726.49c.82.01,1.64.03,2.46.03s1.64-.02,2.46-.03v49.75c-.82,0-1.64.03-2.46.03s-1.64-.02-2.46-.03v-49.75ZM658,684.45c1.27-1.04,2.53-2.09,3.77-3.16l31.9,38.02c-1.24,1.07-2.49,2.13-3.76,3.17l-31.91-38.03ZM670.13,673.61c1.17-1.14,2.33-2.3,3.48-3.48l35.1,35.1c-1.15,1.17-2.31,2.33-3.48,3.48l-35.1-35.1ZM681.29,661.76c1.07-1.24,2.12-2.5,3.16-3.77l38.03,31.91c-1.04,1.27-2.1,2.52-3.17,3.76l-38.02-31.9ZM691.36,648.99c.96-1.33,1.9-2.67,2.83-4.02l40.67,28.48c-.93,1.35-1.87,2.7-2.82,4.03l-40.67-28.48ZM700.3,635.39c.84-1.41,1.66-2.83,2.46-4.26l43.02,24.84c-.81,1.43-1.63,2.84-2.47,4.25l-43.01-24.83ZM708.02,621.06c.71-1.47,1.41-2.96,2.08-4.45l45.03,21c-.68,1.49-1.37,2.98-2.08,4.45l-45.03-21ZM714.45,606.11c.58-1.53,1.14-3.07,1.68-4.62l46.71,17c-.55,1.55-1.11,3.09-1.68,4.62l-46.71-17ZM719.55,590.66c.44-1.57.86-3.16,1.27-4.75l48.04,12.87c-.41,1.59-.84,3.17-1.28,4.75l-48.03-12.87ZM723.26,574.81c.3-1.61.59-3.22.85-4.84l48.98,8.64c-.27,1.62-.55,3.23-.85,4.84l-48.98-8.64ZM725.59,558.7c.16-1.63.3-3.26.42-4.9l49.57,4.34c-.12,1.64-.28,3.27-.44,4.9l-49.55-4.34ZM776.26,540c0,.82-.02,1.64-.03,2.46h-49.75c.01-.82.03-1.64.03-2.46s-.02-1.64-.03-2.46h49.75c0,.82.03,1.64.03,2.46ZM775.57,521.86l-49.57,4.34c-.12-1.64-.26-3.27-.42-4.9l49.55-4.34c.16,1.63.31,3.26.44,4.9ZM773.09,501.4l-48.98,8.64c-.26-1.62-.55-3.24-.85-4.84l48.98-8.64c.3,1.61.58,3.22.85,4.84ZM768.86,481.22l-48.04,12.87c-.4-1.59-.82-3.18-1.27-4.75l48.03-12.87c.44,1.58.87,3.16,1.28,4.75ZM762.84,461.51l-46.71,17c-.54-1.55-1.1-3.09-1.68-4.62l46.71-17c.58,1.53,1.14,3.07,1.68,4.62ZM755.14,442.39l-45.03,21c-.67-1.5-1.37-2.98-2.08-4.45l45.03-21c.71,1.48,1.4,2.96,2.08,4.45ZM745.78,424.03l-43.02,24.84c-.8-1.43-1.62-2.85-2.46-4.26l43.01-24.83c.84,1.41,1.66,2.83,2.47,4.25ZM734.86,406.56l-40.67,28.48c-.92-1.35-1.87-2.69-2.83-4.02l40.67-28.48c.96,1.33,1.89,2.67,2.82,4.03Z"/>
          <path class="cls-1" d="M950.64,366.53c-22.45-53.07-54.58-100.73-95.51-141.66-40.93-40.93-88.59-73.06-141.66-95.51-54.94-23.24-113.31-35.02-173.47-35.02s-118.53,11.78-173.47,35.02c-53.07,22.45-100.73,54.58-141.66,95.51-40.93,40.93-73.06,88.59-95.51,141.66-23.24,54.94-35.02,113.31-35.02,173.47s11.78,118.53,35.02,173.47c22.45,53.07,54.58,100.73,95.51,141.66,40.93,40.93,88.59,73.06,141.66,95.51,54.94,23.24,113.31,35.02,173.47,35.02s118.53-11.78,173.47-35.02c53.07-22.45,100.73-54.58,141.66-95.51,40.93-40.93,73.06-88.59,95.51-141.66,23.24-54.95,35.02-113.31,35.02-173.47s-11.78-118.53-35.02-173.47ZM540,980.75c-243.03,0-440.75-197.72-440.75-440.75S296.97,99.25,540,99.25s440.75,197.72,440.75,440.75-197.72,440.75-440.75,440.75Z"/>
          <path class="cls-1" d="M537.54,303.77v49.75c.82-.01,1.64-.03,2.46-.03s1.64.02,2.46.03v-49.75c-.82,0-1.64-.03-2.46-.03s-1.64.02-2.46.03Z"/>
          <path class="cls-1" d="M542.46,776.23v-49.75c-.82.01-1.64.03-2.46.03s-1.64-.02-2.46-.03v49.75c.82,0,1.64.03,2.46.03s1.64-.02,2.46-.03Z"/>
          <path class="cls-1" d="M526.19,353.99l-4.34-49.57c-1.64.12-3.27.28-4.9.44l4.34,49.55c1.63-.16,3.26-.3,4.9-.42Z"/>
          <path class="cls-1" d="M553.81,726.01l4.34,49.56c1.64-.12,3.27-.28,4.9-.44l-4.34-49.55c-1.63.16-3.26.3-4.9.42Z"/>
          <path class="cls-1" d="M510.03,355.89l-8.64-48.98c-1.62.27-3.23.55-4.84.85l8.64,48.98c1.61-.3,3.22-.59,4.84-.85Z"/>
          <path class="cls-1" d="M569.97,724.11l8.64,48.98c1.62-.27,3.23-.55,4.84-.85l-8.64-48.98c-1.61.3-3.22.59-4.84.85Z"/>
          <path class="cls-1" d="M494.09,359.18l-12.87-48.04c-1.59.41-3.17.84-4.75,1.28l12.87,48.03c1.57-.44,3.16-.86,4.75-1.27Z"/>
          <path class="cls-1" d="M585.9,720.82l12.87,48.04c1.59-.41,3.17-.84,4.75-1.28l-12.87-48.03c-1.57.44-3.16.86-4.75,1.27Z"/>
          <path class="cls-1" d="M601.49,716.13l17,46.71c1.55-.55,3.09-1.11,4.62-1.68l-17-46.71c-1.53.58-3.07,1.14-4.62,1.68Z"/>
          <path class="cls-1" d="M478.51,363.87l-17-46.71c-1.55.55-3.09,1.11-4.62,1.69l17,46.71c1.53-.58,3.07-1.14,4.62-1.68Z"/>
          <path class="cls-1" d="M463.39,369.89l-21-45.03c-1.49.68-2.98,1.37-4.45,2.08l21,45.03c1.47-.71,2.96-1.41,4.45-2.08Z"/>
          <path class="cls-1" d="M616.61,710.11l21,45.03c1.49-.68,2.98-1.37,4.45-2.08l-21-45.03c-1.47.71-2.96,1.41-4.45,2.08Z"/>
          <path class="cls-1" d="M631.13,702.76l24.84,43.02c1.43-.81,2.84-1.63,4.25-2.47l-24.83-43.01c-1.41.84-2.83,1.66-4.26,2.46Z"/>
          <path class="cls-1" d="M448.87,377.24l-24.84-43.02c-1.43.81-2.84,1.63-4.25,2.47l24.83,43.01c1.41-.84,2.83-1.66,4.26-2.46Z"/>
          <path class="cls-1" d="M644.96,694.19l28.48,40.67c1.35-.93,2.7-1.87,4.03-2.82l-28.48-40.67c-1.33.96-2.67,1.9-4.02,2.83Z"/>
          <path class="cls-1" d="M435.04,385.81l-28.48-40.67c-1.35.93-2.7,1.87-4.03,2.82l28.48,40.67c1.33-.96,2.67-1.9,4.02-2.83Z"/>
          <path class="cls-1" d="M661.76,681.29c-1.24,1.07-2.5,2.12-3.77,3.16l31.91,38.03c1.27-1.04,2.52-2.1,3.76-3.17l-31.9-38.02Z"/>
          <path class="cls-1" d="M418.24,398.71c1.24-1.07,2.5-2.12,3.77-3.16l-31.91-38.03c-1.27,1.04-2.52,2.1-3.76,3.17l31.91,38.02Z"/>
          <path class="cls-1" d="M371.3,374.77l35.1,35.1c1.14-1.17,2.3-2.33,3.48-3.48l-35.1-35.1c-1.17,1.15-2.33,2.31-3.48,3.48Z"/>
          <path class="cls-1" d="M708.7,705.23l-35.1-35.1c-1.14,1.17-2.3,2.33-3.48,3.48l35.1,35.1c1.17-1.15,2.33-2.31,3.48-3.48Z"/>
          <path class="cls-1" d="M684.45,658c-1.04,1.27-2.09,2.53-3.16,3.77l38.02,31.9c1.07-1.24,2.13-2.49,3.17-3.76l-38.03-31.91Z"/>
          <path class="cls-1" d="M395.55,422.01c1.04-1.27,2.09-2.53,3.16-3.77l-38.02-31.9c-1.07,1.24-2.13,2.49-3.17,3.76l38.03,31.91Z"/>
          <path class="cls-1" d="M385.81,435.04c.92-1.35,1.87-2.69,2.83-4.02l-40.67-28.48c-.96,1.33-1.89,2.67-2.82,4.03l40.67,28.48Z"/>
          <path class="cls-1" d="M694.19,644.96c-.92,1.35-1.87,2.7-2.83,4.02l40.67,28.48c.96-1.33,1.89-2.68,2.82-4.03l-40.67-28.48Z"/>
          <path class="cls-1" d="M702.76,631.13c-.8,1.43-1.62,2.85-2.46,4.26l43.01,24.83c.84-1.41,1.66-2.83,2.47-4.25l-43.02-24.84Z"/>
          <path class="cls-1" d="M377.24,448.87c.8-1.43,1.62-2.85,2.46-4.26l-43.01-24.83c-.84,1.41-1.66,2.83-2.47,4.25l43.02,24.84Z"/>
          <path class="cls-1" d="M710.11,616.61c-.67,1.5-1.37,2.98-2.08,4.45l45.03,21c.71-1.48,1.4-2.96,2.08-4.45l-45.03-21Z"/>
          <path class="cls-1" d="M369.89,463.39c.67-1.5,1.37-2.98,2.08-4.45l-45.03-21c-.71,1.48-1.4,2.96-2.08,4.45l45.03,21Z"/>
          <path class="cls-1" d="M716.13,601.49c-.54,1.55-1.1,3.09-1.68,4.62l46.71,17c.58-1.53,1.14-3.07,1.68-4.62l-46.71-17Z"/>
          <path class="cls-1" d="M363.87,478.51c.54-1.55,1.1-3.09,1.68-4.62l-46.71-17c-.58,1.53-1.14,3.07-1.69,4.62l46.71,17Z"/>
          <path class="cls-1" d="M720.82,585.91c-.4,1.59-.82,3.18-1.27,4.75l48.03,12.87c.44-1.58.87-3.16,1.28-4.75l-48.04-12.87Z"/>
          <path class="cls-1" d="M359.18,494.1c.4-1.59.82-3.18,1.27-4.75l-48.03-12.87c-.44,1.58-.87,3.16-1.28,4.75l48.04,12.87Z"/>
          <path class="cls-1" d="M724.11,569.97c-.26,1.62-.55,3.24-.85,4.84l48.98,8.64c.3-1.61.58-3.22.85-4.84l-48.98-8.64Z"/>
          <path class="cls-1" d="M355.89,510.03c.26-1.62.55-3.24.85-4.84l-48.98-8.64c-.3,1.61-.58,3.22-.85,4.84l48.98,8.64Z"/>
          <path class="cls-1" d="M353.99,526.19c.12-1.64.26-3.27.42-4.9l-49.55-4.34c-.16,1.63-.31,3.26-.44,4.9l49.57,4.34Z"/>
          <path class="cls-1" d="M726.01,553.81c-.12,1.64-.26,3.27-.42,4.9l49.55,4.34c.16-1.63.31-3.26.44-4.9l-49.57-4.34Z"/>
          <path class="cls-1" d="M353.48,540c0-.82.02-1.64.03-2.46h-49.75c0,.82-.03,1.64-.03,2.46s.02,1.64.03,2.46h49.75c-.01-.82-.03-1.64-.03-2.46Z"/>
          <path class="cls-1" d="M726.52,540c0,.82-.02,1.64-.03,2.46h49.75c0-.82.03-1.64.03-2.46s-.02-1.64-.03-2.46h-49.75c.01.82.03,1.64.03,2.46Z"/>
          <path class="cls-1" d="M353.99,553.81l-49.57,4.34c.12,1.64.28,3.27.44,4.9l49.55-4.34c-.16-1.63-.3-3.26-.42-4.9Z"/>
          <path class="cls-1" d="M726.01,526.19l49.57-4.34c-.12-1.64-.28-3.27-.44-4.9l-49.55,4.34c.16,1.63.3,3.26.42,4.9Z"/>
          <path class="cls-1" d="M724.11,510.03l48.98-8.64c-.27-1.62-.55-3.23-.85-4.84l-48.98,8.64c.3,1.61.59,3.22.85,4.84Z"/>
          <path class="cls-1" d="M355.89,569.97l-48.98,8.64c.27,1.62.55,3.23.85,4.84l48.98-8.64c-.3-1.61-.59-3.22-.85-4.84Z"/>
          <path class="cls-1" d="M359.18,585.91l-48.04,12.87c.41,1.59.84,3.17,1.28,4.75l48.03-12.87c-.44-1.57-.86-3.16-1.27-4.75Z"/>
          <path class="cls-1" d="M720.82,494.1l48.04-12.87c-.41-1.59-.84-3.17-1.28-4.75l-48.03,12.87c.44,1.57.86,3.16,1.27,4.75Z"/>
          <path class="cls-1" d="M716.13,478.51l46.71-17c-.55-1.55-1.11-3.09-1.68-4.62l-46.71,17c.58,1.53,1.14,3.07,1.68,4.62Z"/>
          <path class="cls-1" d="M363.87,601.49l-46.71,17c.55,1.55,1.11,3.09,1.69,4.62l46.71-17c-.58-1.53-1.14-3.07-1.68-4.62Z"/>
          <path class="cls-1" d="M710.11,463.39l45.03-21c-.68-1.49-1.37-2.98-2.08-4.45l-45.03,21c.71,1.47,1.41,2.96,2.08,4.45Z"/>
          <path class="cls-1" d="M369.89,616.61l-45.03,21c.68,1.49,1.37,2.98,2.08,4.45l45.03-21c-.71-1.47-1.41-2.96-2.08-4.45Z"/>
          <path class="cls-1" d="M702.76,448.87l43.02-24.84c-.81-1.43-1.63-2.84-2.47-4.25l-43.01,24.83c.84,1.41,1.66,2.83,2.46,4.26Z"/>
          <path class="cls-1" d="M377.24,631.13l-43.02,24.84c.81,1.43,1.63,2.84,2.47,4.25l43.01-24.83c-.84-1.41-1.66-2.83-2.46-4.26Z"/>
          <path class="cls-1" d="M694.19,435.04l40.67-28.48c-.93-1.35-1.87-2.7-2.82-4.03l-40.67,28.48c.96,1.33,1.9,2.67,2.83,4.02Z"/>
          <path class="cls-1" d="M385.81,644.96l-40.67,28.48c.93,1.35,1.87,2.7,2.82,4.03l40.67-28.48c-.96-1.33-1.9-2.67-2.83-4.02Z"/>
          <path class="cls-1" d="M398.71,661.76c-1.07-1.24-2.12-2.5-3.16-3.77l-38.03,31.91c1.04,1.27,2.1,2.52,3.17,3.76l38.02-31.9Z"/>
          <path class="cls-1" d="M719.31,386.33l-38.02,31.9c1.07,1.24,2.12,2.5,3.16,3.77l38.03-31.91c-1.04-1.27-2.1-2.52-3.17-3.76Z"/>
          <path class="cls-1" d="M673.6,409.87l35.1-35.1c-1.15-1.17-2.31-2.33-3.48-3.48l-35.1,35.1c1.17,1.14,2.33,2.3,3.48,3.48Z"/>
          <path class="cls-1" d="M406.4,670.13l-35.1,35.1c1.15,1.17,2.31,2.33,3.48,3.48l35.1-35.1c-1.17-1.14-2.33-2.3-3.48-3.48Z"/>
          <path class="cls-1" d="M661.76,398.71l31.91-38.02c-1.24-1.07-2.49-2.13-3.76-3.17l-31.91,38.03c1.27,1.04,2.53,2.09,3.77,3.16Z"/>
          <path class="cls-1" d="M418.24,681.29l-31.9,38.02c1.24,1.07,2.49,2.13,3.76,3.17l31.91-38.03c-1.27-1.04-2.53-2.09-3.77-3.16Z"/>
          <path class="cls-1" d="M431.01,691.36l-28.48,40.67c1.33.96,2.68,1.89,4.03,2.82l28.48-40.67c-1.35-.92-2.69-1.87-4.02-2.83Z"/>
          <path class="cls-1" d="M648.99,388.64l28.48-40.67c-1.33-.96-2.67-1.89-4.03-2.82l-28.48,40.67c1.35.92,2.69,1.87,4.02,2.83Z"/>
          <path class="cls-1" d="M635.39,379.7l24.83-43.01c-1.41-.84-2.83-1.66-4.25-2.47l-24.84,43.02c1.43.8,2.85,1.62,4.26,2.46Z"/>
          <path class="cls-1" d="M444.61,700.3l-24.83,43.01c1.41.84,2.83,1.66,4.25,2.47l24.84-43.02c-1.43-.8-2.85-1.62-4.26-2.46Z"/>
          <path class="cls-1" d="M621.06,371.98l21-45.03c-1.48-.71-2.96-1.4-4.45-2.08l-21,45.03c1.5.67,2.98,1.37,4.45,2.08Z"/>
          <path class="cls-1" d="M458.94,708.02l-21,45.03c1.48.71,2.96,1.4,4.45,2.08l21-45.03c-1.5-.67-2.98-1.37-4.45-2.08Z"/>
          <path class="cls-1" d="M473.89,714.45l-17,46.71c1.53.58,3.07,1.14,4.62,1.68l17-46.71c-1.55-.54-3.09-1.1-4.62-1.68Z"/>
          <path class="cls-1" d="M606.11,365.55l17-46.71c-1.53-.58-3.07-1.14-4.62-1.69l-17,46.71c1.55.54,3.09,1.1,4.62,1.68Z"/>
          <path class="cls-1" d="M489.34,719.55l-12.87,48.03c1.58.44,3.16.87,4.75,1.28l12.87-48.04c-1.59-.4-3.18-.82-4.75-1.27Z"/>
          <path class="cls-1" d="M590.66,360.45l12.87-48.03c-1.58-.44-3.16-.87-4.75-1.28l-12.87,48.04c1.59.4,3.18.82,4.75,1.27Z"/>
          <path class="cls-1" d="M574.81,356.74l8.64-48.98c-1.61-.3-3.22-.58-4.84-.85l-8.64,48.98c1.62.26,3.24.55,4.84.85Z"/>
          <path class="cls-1" d="M505.19,723.26l-8.64,48.98c1.61.3,3.22.58,4.84.85l8.64-48.98c-1.62-.26-3.24-.55-4.84-.85Z"/>
          <path class="cls-1" d="M521.3,725.59l-4.34,49.55c1.63.16,3.26.31,4.9.44l4.34-49.56c-1.64-.12-3.27-.26-4.9-.42Z"/>
          <path class="cls-1" d="M558.7,354.41l4.34-49.55c-1.63-.16-3.26-.31-4.9-.44l-4.34,49.57c1.64.12,3.27.26,4.9.42Z"/>
        </g>
        <g>
          <path class="cls-1" d="M189.31,442.62l12.85-37.94,7.35,2.49-10.21,30.14,14.17,4.8,9.6-28.34,7.35,2.49-9.6,28.34,23.62,8-2.64,7.8-52.48-17.78Z"/>
          <path class="cls-1" d="M266.52,392.34c-4.25,2.58-8.84,3.77-13.79,3.58-4.95-.19-9.95-1.82-15-4.88-5.1-3.09-8.88-6.81-11.34-11.14-2.46-4.33-3.54-8.97-3.23-13.91.31-4.93,1.97-9.88,4.98-14.85,3.04-5.01,6.68-8.8,10.93-11.38,4.25-2.58,8.85-3.78,13.81-3.61,4.96.17,9.97,1.78,15.02,4.85,5.14,3.12,8.94,6.83,11.4,11.13,2.45,4.3,3.52,8.93,3.2,13.89-.32,4.96-2.02,9.96-5.08,15.02-3.01,4.96-6.64,8.74-10.89,11.31ZM258.2,387.43c4.97-1.12,9.21-4.57,12.71-10.35,3.53-5.82,4.65-11.19,3.34-16.12-1.3-4.92-4.84-9.14-10.62-12.64-5.82-3.53-11.23-4.73-16.24-3.6-5.01,1.13-9.26,4.58-12.76,10.36-3.5,5.78-4.6,11.13-3.3,16.05,1.3,4.93,4.89,9.17,10.75,12.72,5.78,3.5,11.15,4.7,16.12,3.57Z"/>
          <path class="cls-1" d="M304.62,339.92l-39.26-39,15.57-15.67c4.72-4.75,9.44-7.75,14.16-8.97,4.72-1.23,9.14.2,13.25,4.29,4.98,4.95,6.01,10.8,3.08,17.57l27.34,7.52-6.7,6.74-24.99-7.31c-.93,1.16-1.95,2.3-3.07,3.42l-9.65,9.72,16.06,15.96-5.8,5.73ZM299.06,302.71c2.53-2.55,4.27-4.76,5.21-6.65.95-1.89,1.25-3.57.91-5.07-.34-1.49-1.26-2.98-2.76-4.47-1.42-1.41-2.88-2.25-4.37-2.5-1.49-.25-3.2.15-5.12,1.22-1.92,1.07-4.18,2.92-6.78,5.54l-9.65,9.72,12.47,12.39,10.1-10.17Z"/>
          <path class="cls-1" d="M324.7,246.55l34.16-22.26,4.24,6.5-27.26,17.77,8.17,12.54,26.2-17.08,4.19,6.43-26.2,17.08,9.47,14.52,27.26-17.77,4.19,6.43-34.15,22.26-30.26-46.42Z"/>
          <path class="cls-1" d="M411.27,255.43c-4.93-1.5-8.31-4.96-10.15-10.36l8.08-3.26c1.32,3.45,3.4,5.54,6.25,6.26,2.85.72,6.91.07,12.18-1.95,4.88-1.87,8.2-3.96,9.98-6.27,1.77-2.31,2.15-4.8,1.13-7.47-.6-1.58-1.4-2.73-2.38-3.45-.98-.73-2.45-1.1-4.41-1.11-1.96-.02-4.67.39-8.14,1.2l-7.39,1.73c-6.38,1.48-11.52,1.65-15.4.51-3.88-1.14-6.69-3.98-8.43-8.52-1.77-4.63-1.27-8.92,1.52-12.87,2.78-3.95,7.61-7.29,14.47-10.03,7.31-2.74,13.32-3.43,18.03-2.06,4.7,1.37,7.99,4.63,9.85,9.79l-7.91,3.03c-1.17-3.06-3.17-4.89-6-5.5-2.83-.61-6.57-.03-11.2,1.74-4.68,1.79-7.92,3.78-9.71,5.96-1.79,2.18-2.24,4.46-1.33,6.82.6,1.58,1.4,2.71,2.4,3.4,1,.69,2.41,1.03,4.24,1.01,1.83-.02,4.31-.37,7.43-1.06l7.79-1.79c6.91-1.57,12.31-1.74,16.2-.52,3.89,1.23,6.71,4.13,8.46,8.72,1.81,4.73,1.31,9.2-1.48,13.41-2.8,4.21-7.77,7.68-14.92,10.41l-.07.03c-7.79,2.98-14.15,3.71-19.07,2.21Z"/>
          <path class="cls-1" d="M483.49,188.96l-20.96,3.3-1.21-7.66,50.05-7.89,1.21,7.66-21.04,3.32,7.42,47.08-8.05,1.27-7.42-47.08Z"/>
          <path class="cls-1" d="M593.65,179.83l22.06,4.73c6.76,1.45,11.72,3.68,14.88,6.71,3.16,3.02,4.18,7.12,3.08,12.28-.53,2.48-1.62,4.55-3.28,6.22-1.65,1.67-3.78,2.79-6.39,3.37,5.55,3.56,7.68,8.37,6.39,14.4-1.07,5-3.72,8.55-7.95,10.64-4.23,2.09-10,2.35-17.33.78l-23.07-4.94,11.61-54.19ZM606.37,231.54c3.61.77,6.52,1.07,8.71.89,2.2-.18,3.85-.79,4.97-1.85,1.12-1.06,1.9-2.62,2.34-4.68.62-2.89.04-5.23-1.74-7.01-1.78-1.78-5.04-3.19-9.79-4.2l-15.79-3.38-3.65,17.03,14.94,3.2ZM611.92,207.15c4.23.91,7.43.9,9.6,0,2.17-.91,3.53-2.66,4.08-5.24.55-2.58-.03-4.63-1.76-6.17-1.72-1.53-5.01-2.81-9.86-3.85l-14.09-3.02-3.22,15.02,15.25,3.27Z"/>
          <path class="cls-1" d="M645.91,249.71l23.03-50.32,20.08,9.19c6.09,2.79,10.53,6.19,13.32,10.19,2.78,4,2.97,8.64.55,13.92-2.92,6.38-8.06,9.37-15.42,8.96l2.39,28.26-8.64-3.95-1.78-25.98c-1.41-.47-2.83-1.04-4.27-1.7l-12.45-5.7-9.42,20.59-7.38-3.47ZM678.9,231.65c3.26,1.49,5.94,2.36,8.04,2.59,2.1.24,3.79-.06,5.07-.9,1.28-.83,2.36-2.21,3.24-4.13.83-1.82,1.11-3.48.84-4.97-.28-1.49-1.25-2.95-2.91-4.38-1.67-1.43-4.18-2.91-7.54-4.45l-12.45-5.7-7.31,15.98,13.03,5.96Z"/>
          <path class="cls-1" d="M739,235.99l6.84,4.59-30.88,46.01-6.84-4.59,30.88-46.01Z"/>
          <path class="cls-1" d="M794.76,293.15c-1.09-3.36-3.27-6.61-6.55-9.75-4.87-4.68-9.85-6.93-14.94-6.74-5.09.19-10.02,2.76-14.77,7.71-4.68,4.87-7.02,9.85-7.01,14.95,0,5.09,2.44,9.98,7.31,14.66,6.12,5.89,12.51,7.89,19.15,6.01l6.42-6.68-15.46-14.87,5.38-5.59,21.63,21.02-22.44,23.34-6.28-6.04,3.18-3.31c-2.8-.13-5.64-.92-8.53-2.38-2.88-1.46-5.66-3.46-8.32-6.02-4.19-4.02-7.07-8.39-8.66-13.1-1.59-4.71-1.74-9.46-.47-14.24,1.27-4.78,3.95-9.31,8.05-13.57,4.13-4.3,8.58-7.18,13.35-8.63,4.77-1.46,9.53-1.49,14.27-.11,4.75,1.38,9.21,4.08,13.4,8.11,4.87,4.68,7.98,9.78,9.34,15.3,1.36,5.52.82,10.95-1.61,16.3l-6.45-6.2c1.09-3.42,1.09-6.81,0-10.16Z"/>
          <path class="cls-1" d="M847.6,363.18c-.23-3.52-1.55-7.21-3.95-11.06-3.57-5.74-7.85-9.13-12.83-10.2-4.98-1.06-10.39.22-16.21,3.85-5.73,3.57-9.22,7.83-10.47,12.77-1.25,4.94-.08,10.28,3.49,16.01,4.49,7.21,10.19,10.72,17.09,10.53l7.86-4.9-11.34-18.21,6.59-4.1,15.81,25.69-27.48,17.11-4.6-7.39,3.9-2.43c-2.68-.82-5.24-2.28-7.68-4.4-2.44-2.12-4.63-4.75-6.59-7.88-3.07-4.93-4.79-9.87-5.17-14.82-.38-4.96.63-9.59,3.04-13.92,2.4-4.33,6.12-8.05,11.13-11.17,5.06-3.15,10.08-4.85,15.06-5.09,4.98-.24,9.6.89,13.87,3.4,4.26,2.5,7.93,6.22,11,11.15,3.57,5.73,5.34,11.44,5.3,17.12-.04,5.68-1.89,10.82-5.56,15.4l-4.73-7.59c1.9-3.05,2.73-6.33,2.49-9.85Z"/>
          <path class="cls-1" d="M830.08,424.25c1.73-4.85,5.33-8.08,10.81-9.67l2.89,8.22c-3.51,1.16-5.69,3.15-6.53,5.96-.85,2.81-.39,6.9,1.39,12.26,1.64,4.96,3.58,8.37,5.81,10.25,2.23,1.87,4.7,2.36,7.41,1.47,1.6-.53,2.79-1.27,3.56-2.22.77-.95,1.21-2.4,1.31-4.35.1-1.95-.17-4.68-.84-8.19l-1.39-7.46c-1.19-6.44-1.13-11.58.19-15.41,1.32-3.83,4.28-6.51,8.89-8.03,4.71-1.56,8.97-.86,12.79,2.1,3.82,2.96,6.93,7.93,9.36,14.91,2.41,7.43,2.82,13.46,1.24,18.1-1.58,4.63-4.99,7.77-10.23,9.39l-2.66-8.04c3.11-1.03,5.03-2.94,5.77-5.75.74-2.8.33-6.56-1.23-11.27-1.58-4.76-3.42-8.08-5.51-9.97-2.1-1.89-4.35-2.44-6.76-1.64-1.6.53-2.77,1.28-3.51,2.25-.74.97-1.14,2.36-1.2,4.19-.06,1.83.18,4.32.72,7.47l1.44,7.86c1.25,6.98,1.18,12.38-.22,16.21-1.4,3.83-4.43,6.51-9.09,8.06-4.81,1.59-9.25.89-13.33-2.09-4.07-2.99-7.32-8.11-9.72-15.38l-.02-.08c-2.62-7.92-3.07-14.3-1.34-19.15Z"/>
        </g>
        <g>
          <path class="cls-1" d="M201.29,632.88c1.07-3.04,3.26-5.03,6.59-5.99l1.52,4.59c-2.18.67-3.58,1.97-4.18,3.9-.6,1.93-.34,4.7.78,8.33,1.05,3.4,2.33,5.74,3.85,7.01s3.19,1.63,5.02,1.06c1.09-.33,1.92-.84,2.49-1.51.57-.67.91-1.67,1.02-3,.11-1.34,0-3.16-.37-5.48l-.82-4.87c-.68-4.15-.59-7.41.28-9.79.87-2.38,2.76-4.02,5.68-4.92,2.95-.91,5.61-.4,7.96,1.53,2.35,1.93,4.26,5.13,5.71,9.6,1.4,4.66,1.62,8.46.66,11.37-.96,2.92-3.04,4.85-6.23,5.8l-1.38-4.48c4.01-1.24,5.03-5.07,3.05-11.49-1-3.24-2.22-5.51-3.65-6.79-1.43-1.28-2.98-1.66-4.65-1.15-1.09.33-1.91.84-2.46,1.52-.55.68-.87,1.64-.96,2.88s.03,2.92.37,5.03l.79,5.14c.71,4.46.6,7.88-.31,10.28-.91,2.39-2.85,4.04-5.8,4.96-3.02.93-5.79.42-8.3-1.53-2.52-1.95-4.49-5.25-5.93-9.9l-.02-.05c-1.55-5.01-1.79-9.03-.72-12.07Z"/>
          <path class="cls-1" d="M222.5,691.8c0-3.16.88-6.04,2.64-8.66,1.75-2.62,4.32-4.79,7.7-6.52,3.38-1.73,6.65-2.54,9.83-2.43,3.17.11,6.05,1.08,8.63,2.91,2.58,1.83,4.71,4.39,6.4,7.68,1.72,3.35,2.57,6.6,2.57,9.76,0,3.15-.88,6.04-2.64,8.66-1.76,2.62-4.32,4.79-7.7,6.53-3.41,1.75-6.69,2.58-9.85,2.5-3.16-.08-6.02-1.04-8.58-2.88-2.57-1.84-4.72-4.44-6.45-7.82-1.7-3.32-2.55-6.56-2.54-9.71ZM227.34,688.76c-1.09,3.26-.61,6.87,1.43,10.85,2.07,4.04,4.75,6.55,8.06,7.54,3.3.99,6.92.47,10.87-1.55,4.01-2.05,6.57-4.73,7.69-8.02,1.12-3.3.67-6.93-1.37-10.91-2.04-3.98-4.71-6.47-8.02-7.47-3.31-1-6.98-.47-11.02,1.6-4.01,2.06-6.55,4.71-7.64,7.97Z"/>
          <path class="cls-1" d="M277.43,719.94l15.17,20.31-3.43,2.56-12.43-16.63-8.4,6.27,11.67,15.62-3.43,2.56-11.67-15.63-13,9.71-2.74-3.67,28.26-21.11Z"/>
          <path class="cls-1" d="M313.82,769.59l-9.91-9.61,2.98-3.08,23.16,22.45-2.98,3.07-9.95-9.65-21.58,22.25-3.29-3.19,21.58-22.25Z"/>
          <path class="cls-1" d="M346.18,793.34l4.27,2.76-8.05,28.88,23.29-19.03,3.81,2.46-7.85,28.95,23.01-19.15,4.1,2.66-28.93,23.3-3.72-2.41,7.97-29.41-23.51,19.37-3.68-2.38,9.29-36Z"/>
          <path class="cls-1" d="M415.41,832.61l3.95,1.66,1.7,38.97-4.74-1.99-.41-11.27-16.59-6.96-8.32,7.6-4.6-1.93,29.02-26.09ZM415.8,855.4l-.61-16.92-12.45,11.45,13.06,5.47Z"/>
          <path class="cls-1" d="M447.42,881.29l7.76-34.36,13.67,3.09c4.16.94,7.36,2.45,9.59,4.54,2.23,2.09,2.95,4.9,2.15,8.44-1.02,4.52-3.93,7.05-8.74,7.59l5.25,17.46-5.11-1.15-4.68-16.35c-.91-.07-1.96-.24-3.14-.5l-9.05-2.04-3.24,14.35-4.46-1.06ZM465.48,866.04c3.41.77,5.91.81,7.49.12,1.59-.69,2.62-2.09,3.09-4.19.44-1.97.05-3.58-1.18-4.84-1.23-1.26-3.6-2.29-7.11-3.08l-9.05-2.04-2.69,11.9,9.44,2.13Z"/>
          <path class="cls-1" d="M506.48,856.55l25.7,1.65-.27,4.28-21.12-1.35-.67,10.46,20.32,1.3-.27,4.23-20.32-1.3-.77,12.02,21.12,1.35-.27,4.22-25.7-1.65,2.25-35.21Z"/>
          <path class="cls-1" d="M589.13,854.42l25.27-4.98.83,4.2-20.77,4.09,2.03,10.28,19.98-3.94.82,4.16-19.98,3.94,2.33,11.82,20.77-4.09.82,4.15-25.27,4.98-6.82-34.61Z"/>
          <path class="cls-1" d="M635.59,843.71l3.97-1.46,30.46,18.87-9.74-26.49,4.21-1.55,12.17,33.11-3.88,1.43-30.48-18.65,9.67,26.3-4.21,1.55-12.17-33.11Z"/>
          <path class="cls-1" d="M709.42,815.25c-2.39.07-4.88.85-7.46,2.36-3.86,2.25-6.21,5.05-7.04,8.4-.83,3.36-.1,7,2.18,10.92,2.26,3.89,5.05,6.29,8.36,7.21,3.31.91,6.9.25,10.76-2,2.5-1.45,4.36-3.14,5.58-5.05,1.22-1.91,1.83-4,1.84-6.26l-3.29-5.67-12.07,7.02-2.13-3.66,16.15-9.33,10.21,17.56-4.05,2.36-1.65-2.83c-.59,1.86-1.61,3.59-3.07,5.2-1.46,1.61-3.26,3.03-5.41,4.28-3.22,1.88-6.41,2.89-9.56,3.05-3.15.16-6.08-.56-8.79-2.18-2.71-1.61-5.01-4.06-6.92-7.34-1.91-3.28-2.89-6.51-2.95-9.68-.06-3.17.76-6.1,2.45-8.77,1.69-2.67,4.13-4.94,7.33-6.8,3.69-2.14,7.32-3.17,10.89-3.07,3.57.1,6.76,1.32,9.56,3.65l-4.31,2.51c-2.01-1.32-4.21-1.94-6.6-1.88Z"/>
          <path class="cls-1" d="M733.63,792.31l3.62-2.82,21.71,27.81-3.62,2.82-21.71-27.81Z"/>
          <path class="cls-1" d="M754.62,775.17l2.98-3,35.58,4.22-20.03-19.89,3.16-3.18,25.03,24.86-2.91,2.93-35.51-4.01,19.88,19.74-3.16,3.18-25.03-24.86Z"/>
          <path class="cls-1" d="M790.37,736.44l15.07-20.88,3.47,2.51-12.38,17.17,8.5,6.13,11.91-16.51,3.43,2.48-11.91,16.51,9.77,7.05,12.38-17.17,3.43,2.48-15.07,20.88-28.61-20.64Z"/>
          <path class="cls-1" d="M816.98,696.74l11.79-22.9,3.81,1.96-9.69,18.82,9.32,4.8,9.32-18.1,3.76,1.94-9.32,18.1,10.71,5.51,9.69-18.82,3.76,1.94-11.79,22.9-31.37-16.15Z"/>
          <path class="cls-1" d="M870.89,664.68l-33.46-11.02,4.38-13.31c1.33-4.05,3.15-7.09,5.44-9.11,2.29-2.02,5.16-2.47,8.61-1.33,4.4,1.45,6.64,4.59,6.71,9.43l17.88-3.56-1.64,4.98-16.72,3.09c-.16.9-.42,1.93-.8,3.08l-2.9,8.81,13.98,4.6-1.48,4.34ZM857.44,645.24c1.09-3.32,1.37-5.8.83-7.45-.54-1.64-1.83-2.8-3.87-3.48-1.91-.63-3.56-.39-4.93.71-1.37,1.1-2.62,3.37-3.74,6.78l-2.9,8.81,11.58,3.81,3.03-9.19Z"/>
        </g>
        <g>
          <polygon class="cls-1" points="501.72 607.45 480.92 607.45 480.92 552.91 521.57 552.91 530.96 527.09 480.92 527.09 480.92 472.55 550.81 472.55 560.21 446.74 455.11 446.74 438.02 446.74 438.02 472.55 455.11 472.55 455.11 527.09 455.11 552.91 455.11 607.45 438.02 607.45 438.02 633.26 455.11 633.26 492.32 633.26 501.72 607.45"/>
          <path class="cls-1" d="M636.43,540c11.29-9.74,18.45-24.13,18.45-40.18,0-29.27-23.81-53.09-53.08-53.09h-14.12l-9.4,25.81h23.51c15.04,0,27.27,12.23,27.27,27.27s-12.23,27.27-27.27,27.27h-43.37l-9.4,25.81h52.76c15.04,0,27.27,12.23,27.27,27.27s-12.23,27.27-27.27,27.27h-72.61l-9.4,25.81h82.01c29.27,0,53.08-23.81,53.08-53.08,0-16.04-7.16-30.44-18.45-40.18Z"/>
        </g>
        <path class="cls-2" d="M204.34,517.1h0c1.63,11.91,10.99,21.27,22.9,22.9h0s0,0,0,0c-11.91,1.63-21.27,10.99-22.9,22.9h0s0,0,0,0c-1.63-11.91-10.99-21.27-22.9-22.9h0s0,0,0,0c11.91-1.63,21.27-10.99,22.9-22.9h0Z"/>
        <path class="cls-2" d="M204.34,517.1h0c1.63,11.91,10.99,21.27,22.9,22.9h0s0,0,0,0c-11.91,1.63-21.27,10.99-22.9,22.9h0s0,0,0,0c-1.63-11.91-10.99-21.27-22.9-22.9h0s0,0,0,0c11.91-1.63,21.27-10.99,22.9-22.9h0Z"/>
        <path class="cls-2" d="M875.66,517.1h0c1.63,11.91,10.99,21.27,22.9,22.9h0s0,0,0,0c-11.91,1.63-21.27,10.99-22.9,22.9h0s0,0,0,0c-1.63-11.91-10.99-21.27-22.9-22.9h0s0,0,0,0c11.91-1.63,21.27-10.99,22.9-22.9h0Z"/>
      </g>
    </g>
  </g>
</svg>